<?xml version="1.0" standalone="no"?>
<!DOCTYPE svg PUBLIC "-//W3C//DTD SVG 20010904//EN"
 "http://www.w3.org/TR/2001/REC-SVG-20010904/DTD/svg10.dtd">
<svg version="1.0" xmlns="http://www.w3.org/2000/svg"
 width="70.000000pt" height="70.000000pt" viewBox="0 0 70.000000 70.000000"
 preserveAspectRatio="xMidYMid meet">
<metadata>
Created by potrace 1.11, written by Peter Selinger 2001-2013
</metadata>
<g transform="translate(0.000000,70.000000) scale(0.100000,-0.100000)"
fill="#000000" stroke="none">
<path d="M2 398 l3 -303 345 0 345 0 3 303 2 302 -350 0 -350 0 2 -302z"/>
<path d="M72 41 c-6 -4 -25 -6 -42 -5 -24 2 -30 -2 -30 -17 0 -18 13 -19 350
-19 341 0 350 0 350 20 0 18 -6 19 -65 16 -36 -1 -65 1 -65 6 0 5 -5 6 -10 3
-17 -11 -110 -13 -110 -3 0 5 -5 6 -10 3 -17 -11 -110 -13 -110 -3 0 5 -5 6
-10 3 -17 -11 -110 -13 -110 -3 0 5 -5 6 -11 2 -16 -9 -103 -12 -109 -3 -3 4
-11 5 -18 0z"/>
</g>
</svg>
